<svg width="16" height="16" viewBox="0 0 16 16" fill="none" xmlns="http://www.w3.org/2000/svg">
  <path d="M1.5 0H14.5L13.2 13.25L8 15L2.8 13.25L1.5 0Z" fill="#264DE4"/>
  <path d="M8 13.6L11.75 12.45L12.85 1.5H8V13.6Z" fill="#2965F1"/>
  <path d="M8 6.9H5.45L5.2 4.25H8V2.5H3.5L3.6 3.7L3.95 7.25H8V6.9Z" fill="white"/>
  <path d="M8 9.75H6L5.9 8.5H3.75L4 11.25H8V9.75Z" fill="white"/>
  <path d="M8 6.9V7.25H10.25L10 9.75H8V11.25H11.95L12.5 6.9H8Z" fill="white"/>
  <path d="M8 2.5V4.25H11.55L11.65 3.25L11.75 2.5H8Z" fill="white"/>
</svg>
