<svg width="16" height="16" viewBox="0 0 256 256" fill="none" xmlns="http://www.w3.org/2000/svg">
  <rect width="256" height="256" rx="15%" fill="#f7df1e"/>
  <path d="M67.2 213.6L88.9 200.5c4.8 8.4 9.2 15.5 19.7 15.5 10.1 0 16.5-4 16.5-19.5v-106h25.6v106c0 26.6-15.6 38.7-38.3 38.7-20.5 0-32.4-10.6-38.4-23.7zM152.5 211.7l20.8-12c5.6 9.8 12.8 17 25.5 17 10.7 0 17.5-5.3 17.5-12.6 0-8.8-7-11.9-18.7-17-13.6-5.9-22.5-13.4-22.5-29.2 0-14.6 11.1-25.6 28.4-25.6 12.3 0 21.3 4.3 27.6 15.7l-19.9 12.7c-4.4-7.8-8.9-10.9-15.9-10.9-7.2 0-11.8 4.5-11.8 10.9 0 7.6 4.5 10.7 15 15.3 15.2 6.5 26.2 13.2 26.2 30.2 0 17.3-13.6 27-31.8 27-17.8 0-29.4-8.7-35-20.1z" fill="#000"/>
</svg>
