<svg xmlns="http://www.w3.org/2000/svg" viewBox="0 0 24 24" width="24" height="24" fill="black">
  <path d="M12 .297C5.373.297 0 5.67 0 12.297c0 5.302 3.438 9.8 8.207 11.387.6.111.793-.261.793-.577 0-.285-.01-1.04-.015-2.04-3.338.724-4.042-1.61-4.042-1.61-.546-1.385-1.333-1.755-1.333-1.755-1.089-.745.083-.73.083-.73 1.204.085 1.837 1.236 1.837 1.236 1.07 1.835 2.807 1.305 3.492.997.108-.776.418-1.305.762-1.606-2.665-.303-5.467-1.334-5.467-5.931 0-1.31.469-2.381 1.236-3.221-.124-.303-.535-1.521.117-3.172 0 0 1.008-.322 3.3 1.23a11.5 11.5 0 013.006-.404c1.02.005 2.048.138 3.006.404 2.29-1.553 3.296-1.23 3.296-1.23.653 1.651.242 2.869.118 3.172.77.84 1.236 1.911 1.236 3.221 0 4.61-2.807 5.625-5.479 5.921.43.372.814 1.103.814 2.222 0 1.606-.014 2.898-.014 3.293 0 .319.19.694.801.576C20.565 22.092 24 17.593 24 12.297 24 5.67 18.627.297 12 .297z" fill="white"/>
</svg>
